<svg width="42" height="20" viewBox="0 0 42 20" fill="none" xmlns="http://www.w3.org/2000/svg">
<path d="M10.4 13.1H8.8C7.8 13.1 7 12.3 7 11.3V8.5C7 7.3 8 6.3 9.1 6.3H10.8C12.2 6.3 14 4 15.6 4H24.9C25.7 4 29.3 6.2 30.2 6.7C30.2 6.7 32.7 6.9 34.6 7.2C36.7 7.6 39 8.3 39 9.9V12.1C39 12.8 38.4 13.8 36.5 13.8" stroke="white" stroke-width="1.5" stroke-miterlimit="10" stroke-linecap="round" stroke-linejoin="round"/>
<path d="M14.1002 16C15.4257 16 16.5002 14.8807 16.5002 13.5C16.5002 12.1193 15.4257 11 14.1002 11C12.7747 11 11.7002 12.1193 11.7002 13.5C11.7002 14.8807 12.7747 16 14.1002 16Z" stroke="white" stroke-width="1.5" stroke-miterlimit="10" stroke-linecap="round" stroke-linejoin="round"/>
<path d="M32.6998 16C34.0253 16 35.0998 14.8807 35.0998 13.5C35.0998 12.1193 34.0253 11 32.6998 11C31.3743 11 30.2998 12.1193 30.2998 13.5C30.2998 14.8807 31.3743 16 32.6998 16Z" stroke="white" stroke-width="1.5" stroke-miterlimit="10" stroke-linecap="round" stroke-linejoin="round"/>
<path d="M18.4004 14.8H28.8004" stroke="white" stroke-width="1.5" stroke-miterlimit="10" stroke-linecap="round" stroke-linejoin="round"/>
</svg>
