<svg width="20" height="14" viewBox="0 0 20 14" fill="none" xmlns="http://www.w3.org/2000/svg">
<path d="M2 2L8.94 6.338C9.25786 6.53667 9.62516 6.642 10 6.642C10.3748 6.642 10.7421 6.53667 11.06 6.338L18 2M3 13H17C17.5304 13 18.0391 12.7893 18.4142 12.4142C18.7893 12.0391 19 11.5304 19 11V3C19 2.46957 18.7893 1.96086 18.4142 1.58579C18.0391 1.21071 17.5304 1 17 1H3C2.46957 1 1.96086 1.21071 1.58579 1.58579C1.21071 1.96086 1 2.46957 1 3V11C1 11.5304 1.21071 12.0391 1.58579 12.4142C1.96086 12.7893 2.46957 13 3 13Z" stroke="#52B946" stroke-width="1.5" stroke-linecap="round" stroke-linejoin="round"/>
</svg>
