<svg width="20" height="20" viewBox="0 0 20 20" fill="none" xmlns="http://www.w3.org/2000/svg">
<path d="M16.939 18.3962C7.82499 17.2792 1.48899 10.8182 1.00099 2.24116C0.995226 2.11415 1.0147 1.98726 1.05828 1.86782C1.10185 1.74839 1.16868 1.63877 1.25488 1.54532C1.34108 1.45186 1.44495 1.37642 1.56048 1.32336C1.67602 1.27029 1.80093 1.24066 1.92799 1.23616L6.70599 1.00116C6.91539 0.991066 7.12267 1.04704 7.29852 1.16117C7.47438 1.27529 7.60992 1.4418 7.68599 1.63716L8.59399 3.96416C8.68132 4.18848 8.68479 4.43678 8.60378 4.66346C8.52277 4.89014 8.36271 5.07999 8.15299 5.19816L5.23399 6.84416C5.10055 6.91954 4.98622 7.02457 4.89983 7.15116C4.81344 7.27775 4.7573 7.4225 4.73575 7.57423C4.7142 7.72596 4.72781 7.88062 4.77553 8.02625C4.82326 8.17189 4.90382 8.30461 5.01099 8.41416L10.881 14.4142C10.9876 14.5228 11.1176 14.6058 11.2611 14.6566C11.4046 14.7074 11.5578 14.7248 11.709 14.7074C11.8602 14.6901 12.0055 14.6384 12.1337 14.5564C12.262 14.4744 12.3698 14.3642 12.449 14.2342L14.259 11.2692C14.3808 11.0694 14.5688 10.9187 14.7902 10.8432C15.0117 10.7678 15.2526 10.7724 15.471 10.8562L17.794 11.7472C17.997 11.825 18.1691 11.9669 18.2842 12.1513C18.3993 12.3357 18.4512 12.5526 18.432 12.7692L18.012 17.5092C18.0021 17.6387 17.9661 17.765 17.9063 17.8803C17.8465 17.9957 17.7641 18.0978 17.6639 18.1806C17.5638 18.2634 17.448 18.3252 17.3234 18.3622C17.1989 18.3992 17.0681 18.4108 16.939 18.3962Z" stroke="#52B946" stroke-width="1.5" stroke-linecap="round" stroke-linejoin="round"/>
</svg>
