<svg width="27" height="27" viewBox="0 0 27 27" fill="none" xmlns="http://www.w3.org/2000/svg">
<path d="M6.32386 22.4985C7.6549 19.8879 10.3687 18.1 13.5 18.1C16.6072 18.1 19.3031 19.8604 20.6451 22.4381M16.1833 11.7111C16.1833 13.2637 14.9247 14.5222 13.3722 14.5222C11.8197 14.5222 10.5611 13.2637 10.5611 11.7111C10.5611 10.1586 11.8197 8.9 13.3722 8.9C14.9247 8.9 16.1833 10.1586 16.1833 11.7111ZM13.5 25C7.14872 25 2 19.8512 2 13.5C2 7.14872 7.14872 2 13.5 2C19.8512 2 25 7.14872 25 13.5C25 19.8512 19.8512 25 13.5 25Z" stroke="white" stroke-width="3" stroke-linecap="round" stroke-linejoin="round"/>
</svg>
