<svg width="26" height="26" viewBox="0 0 26 26" fill="none" xmlns="http://www.w3.org/2000/svg">
<path d="M7.58365 26.0007C8.78026 26.0007 9.7503 25.0307 9.7503 23.834C9.7503 22.6375 8.78026 21.6674 7.58365 21.6674C6.38704 21.6674 5.41699 22.6375 5.41699 23.834C5.41699 25.0307 6.38704 26.0007 7.58365 26.0007Z" fill="white"/>
<path d="M18.4167 26.0007C19.6133 26.0007 20.5833 25.0307 20.5833 23.834C20.5833 22.6375 19.6133 21.6674 18.4167 21.6674C17.22 21.6674 16.25 22.6375 16.25 23.834C16.25 25.0307 17.22 26.0007 18.4167 26.0007Z" fill="white"/>
<path d="M21.3958 14.2588C21.2387 14.831 20.898 15.3357 20.4261 15.6955C19.9542 16.0552 19.3772 16.2501 18.7839 16.25H7.8184C7.72982 16.2492 7.64469 16.2155 7.5796 16.1555C7.5145 16.0954 7.47413 16.0133 7.46632 15.925L6.53899 8.66665H11.375C11.8059 8.66665 12.2193 8.49544 12.5241 8.1907C12.8288 7.88596 13 7.47262 13 7.04165C13 6.61068 12.8288 6.19735 12.5241 5.8926C12.2193 5.58786 11.8059 5.41665 11.375 5.41665H6.12407L5.84024 3.18391C5.73726 2.30688 5.31587 1.49816 4.65608 0.911252C3.99628 0.324343 3.14398 7.90854e-05 2.26091 0H1.625C1.19403 0 0.780696 0.171204 0.475951 0.475951C0.171204 0.780696 0 1.19403 0 1.625C0 2.05597 0.171204 2.4693 0.475951 2.77404C0.780696 3.07878 1.19403 3.24999 1.625 3.24999H2.26091C2.3495 3.25073 2.43462 3.28442 2.49971 3.3445C2.56481 3.40458 2.60519 3.48675 2.61299 3.57499L4.23799 16.315C4.34076 17.1924 4.76217 18.0015 5.42222 18.5887C6.08227 19.1758 6.93499 19.5001 7.8184 19.5H18.7839C20.0883 19.4992 21.3564 19.0704 22.3935 18.2794C23.4308 17.4884 24.1797 16.3789 24.5255 15.1211L24.5429 15.0561C24.6092 14.8153 24.619 14.5625 24.5717 14.3172C24.5243 14.0718 24.4211 13.8409 24.2701 13.642C24.119 13.4431 23.924 13.2816 23.7004 13.1703C23.4768 13.059 23.2305 13.0007 22.9807 13C22.6252 12.9999 22.2795 13.1164 21.9965 13.3317C21.7135 13.5469 21.509 13.849 21.4142 14.1916L21.3958 14.2588Z" fill="white"/>
<path d="M24.375 3.24999H22.75V1.625C22.75 1.19403 22.5788 0.780696 22.2741 0.475951C21.9693 0.171204 21.5559 0 21.125 0C20.694 0 20.2806 0.171204 19.9759 0.475951C19.6712 0.780696 19.5 1.19403 19.5 1.625V3.24999H17.875C17.444 3.24999 17.0306 3.4212 16.7259 3.72594C16.4212 4.03068 16.25 4.44402 16.25 4.87499C16.25 5.30596 16.4212 5.71929 16.7259 6.02403C17.0306 6.32878 17.444 6.49999 17.875 6.49999H19.5V8.12498C19.5 8.55595 19.6712 8.96929 19.9759 9.27403C20.2806 9.57877 20.694 9.74998 21.125 9.74998C21.5559 9.74998 21.9693 9.57877 22.2741 9.27403C22.5788 8.96929 22.75 8.55595 22.75 8.12498V6.49999H24.375C24.8059 6.49999 25.2193 6.32878 25.5241 6.02403C25.8288 5.71929 26 5.30596 26 4.87499C26 4.44402 25.8288 4.03068 25.5241 3.72594C25.2193 3.4212 24.8059 3.24999 24.375 3.24999Z" fill="white"/>
</svg>
