<svg width="33" height="33" viewBox="0 0 33 33" fill="none" xmlns="http://www.w3.org/2000/svg">
<path d="M11.45 27.2062C12.0065 27.2062 12.4577 26.7551 12.4577 26.1986C12.4577 25.6421 12.0065 25.1909 11.45 25.1909C10.8935 25.1909 10.4424 25.6421 10.4424 26.1986C10.4424 26.7551 10.8935 27.2062 11.45 27.2062Z" stroke="white" stroke-width="1.51146" stroke-linecap="round" stroke-linejoin="round"/>
<path d="M25.5574 27.2062C26.1139 27.2062 26.5651 26.7551 26.5651 26.1986C26.5651 25.6421 26.1139 25.1909 25.5574 25.1909C25.0009 25.1909 24.5498 25.6421 24.5498 26.1986C24.5498 26.7551 25.0009 27.2062 25.5574 27.2062Z" stroke="white" stroke-width="1.51146" stroke-linecap="round" stroke-linejoin="round"/>
<path d="M3.38965 5.03809H7.4202L10.4431 22.1679H26.5653" stroke="white" stroke-width="1.51146" stroke-linecap="round" stroke-linejoin="round"/>
<path d="M10.443 16.7939H26.1521C26.2686 16.794 26.3816 16.7537 26.4717 16.6799C26.5618 16.606 26.6236 16.5032 26.6465 16.389L28.4602 7.32022C28.4749 7.2471 28.4731 7.17163 28.455 7.09928C28.4369 7.02692 28.403 6.95948 28.3557 6.90182C28.3084 6.84416 28.2489 6.79772 28.1815 6.76585C28.1141 6.73398 28.0404 6.71748 27.9659 6.71753H8.42773" stroke="white" stroke-width="1.51146" stroke-linecap="round" stroke-linejoin="round"/>
</svg>
