<svg width="16" height="20" viewBox="0 0 16 20" fill="none" xmlns="http://www.w3.org/2000/svg">
<path d="M11.316 8.345H13.35C13.6152 8.345 13.8696 8.45036 14.0571 8.63789C14.2446 8.82543 14.35 9.07978 14.35 9.345V16.18C14.35 18.576 10.645 19.118 7.675 19.118C4.706 19.118 1 18.576 1 16.18V9.345C1 9.07978 1.10536 8.82543 1.29289 8.63789C1.48043 8.45036 1.73478 8.345 2 8.345H4.036H11.316ZM11.316 8.345L11.317 4.428C11.317 2.665 9.861 1 7.676 1C5.491 1 4.036 2.665 4.034 4.428V8.345" stroke="#52B946" stroke-width="1.5" stroke-linecap="round" stroke-linejoin="round"/>
<path d="M7.22259 13.9859V13.7624L7.05598 13.6133C6.91563 13.4877 6.81671 13.3225 6.77231 13.1395C6.72791 12.9564 6.74012 12.7643 6.80734 12.5883C6.87456 12.4124 6.9936 12.261 7.14873 12.1542C7.30386 12.0474 7.48776 11.9902 7.67609 11.9902C7.86443 11.9902 8.04833 12.0474 8.20346 12.1542C8.35858 12.261 8.47763 12.4124 8.54485 12.5883C8.61206 12.7643 8.62428 12.9565 8.57988 13.1395C8.53548 13.3225 8.43656 13.4877 8.2962 13.6133L7.32088 14.4859H8.13059V15.3039C8.13059 15.4244 8.08276 15.5398 7.99762 15.625C7.91248 15.7101 7.797 15.7579 7.67659 15.7579C7.55618 15.7579 7.44071 15.7101 7.35557 15.625C7.27043 15.5398 7.22259 15.4244 7.22259 15.3039V13.9859Z" stroke="#52B946"/>
</svg>
