<svg width="14" height="16" viewBox="0 0 14 16" fill="none" xmlns="http://www.w3.org/2000/svg">
<path d="M6.7959 14.75C6.7959 14.3358 7.08052 14 7.4316 14H12.5172C12.6342 14 12.7291 13.8881 12.7291 13.75V1.75C12.7291 1.61193 12.6342 1.5 12.5172 1.5H7.4316C7.08052 1.5 6.7959 1.16421 6.7959 0.75C6.7959 0.33579 7.08052 0 7.4316 0H12.5172C13.3364 0 14.0005 0.7835 14.0005 1.75V13.75C14.0005 14.7165 13.3364 15.5 12.5172 15.5H7.4316C7.08052 15.5 6.7959 15.1642 6.7959 14.75Z" fill="#54B847"/>
<path d="M0.226562 8.86509C0.226562 9.41739 0.60604 9.86509 1.07416 9.86509H5.19008C5.20951 10.2205 5.23384 10.5757 5.26306 10.9304L5.2882 11.2356C5.32908 11.7319 5.77577 12.029 6.15685 11.8136C7.70617 10.9375 9.10878 9.73879 10.2971 8.27489L10.3225 8.24359C10.5489 7.96469 10.5489 7.52499 10.3225 7.24609L10.2971 7.21479C9.10878 5.75089 7.70617 4.55215 6.15685 3.67614C5.77577 3.46066 5.32908 3.75785 5.2882 4.25409L5.26306 4.55929C5.23384 4.91402 5.20951 5.26917 5.19008 5.62459L1.07416 5.6246C0.606048 5.6246 0.226562 6.07229 0.226562 6.62459V8.86509Z" fill="#54B847"/>
</svg>
