<svg width="19" height="21" viewBox="0 0 19 21" fill="none" xmlns="http://www.w3.org/2000/svg">
<path d="M13.4435 4.78081C13.4435 5.27732 13.3457 5.76896 13.1557 6.22767C12.9657 6.68638 12.6872 7.10317 12.3361 7.45425C11.985 7.80533 11.5682 8.08383 11.1095 8.27383C10.6508 8.46383 10.1592 8.56163 9.66265 8.56163C9.16615 8.56163 8.6745 8.46383 8.21579 8.27383C7.75709 8.08383 7.34029 7.80533 6.98921 7.45425C6.63813 7.10317 6.35964 6.68638 6.16963 6.22767C5.97963 5.76896 5.88184 5.27732 5.88184 4.78081C5.88184 3.77808 6.28017 2.81641 6.98921 2.10737C7.69825 1.39833 8.65992 1 9.66265 1C10.6654 1 11.627 1.39833 12.3361 2.10737C13.0451 2.81641 13.4435 3.77808 13.4435 4.78081Z" stroke="#52B946" stroke-width="1.5"/>
<path d="M17.6 19.9598H1.81158C1.71174 19.9635 1.61295 19.9384 1.52695 19.8875C1.44094 19.8367 1.37133 19.7623 1.32636 19.6731C1.2814 19.5838 1.26299 19.4836 1.2733 19.3842C1.28361 19.2849 1.32221 19.1905 1.38453 19.1124C2.78417 17.3316 6.31681 13.3596 9.99253 13.3596C13.6884 13.3596 16.8387 17.3763 18.046 19.1426C18.1003 19.2222 18.1316 19.3152 18.1363 19.4114C18.1409 19.5077 18.1189 19.6033 18.0726 19.6878C18.0264 19.7722 17.9576 19.8423 17.874 19.8901C17.7904 19.9379 17.6952 19.9617 17.5989 19.9587L17.6 19.9598Z" stroke="#52B946" stroke-width="1.5" stroke-linecap="round" stroke-linejoin="round"/>
</svg>
