<svg width="27" height="25" viewBox="0 0 27 25" fill="none" xmlns="http://www.w3.org/2000/svg">
<path d="M22.5675 4.52154L22.5671 4.52114C22.1349 4.06699 21.6196 3.70676 21.0514 3.46116C20.4833 3.21558 19.8736 3.08947 19.258 3.09L19.2574 3.09C18.6392 3.08909 18.0269 3.21666 17.4572 3.46532C16.8874 3.71398 16.3716 4.07874 15.9409 4.53819L15.9396 4.53954L15.9396 4.53953L13.6811 6.91313L13.4997 7.10384L13.3186 6.91279L11.0516 4.52126C11.0515 4.52121 11.0515 4.52116 11.0514 4.5211C10.619 4.06731 10.1036 3.70728 9.53554 3.46166C8.96742 3.21601 8.35779 3.08961 7.74218 3.08961C7.12658 3.08961 6.51695 3.21601 5.94883 3.46166C5.3807 3.70731 4.86524 4.06739 4.43278 4.52126L4.43251 4.52154C3.54001 5.45533 3.03849 6.715 3.03849 8.0288C3.03849 9.34261 3.54001 10.6023 4.43251 11.5361L13.5 20.9983L22.5675 11.5361V4.52154ZM22.5675 4.52154C23.46 5.45533 23.9615 6.715 23.9615 8.0288M22.5675 4.52154L23.9615 8.0288M2.79428 2.88831L2.79439 2.8882C3.43953 2.2122 4.2092 1.67488 5.05875 1.30795C5.90832 0.941014 6.82054 0.75193 7.74218 0.75193C8.66382 0.75193 9.57605 0.941014 10.4256 1.30795C11.275 1.67481 12.0446 2.212 12.6896 2.88783C12.6897 2.88795 12.6899 2.88808 12.69 2.8882L13.5 3.73053L14.3098 2.88848C14.3099 2.88832 14.3101 2.88816 14.3102 2.888C14.9545 2.21094 15.7239 1.67279 16.5735 1.30551C17.4233 0.93815 18.3359 0.749217 19.2579 0.750002C19.2579 0.750002 19.258 0.750003 19.258 0.750003M2.79428 2.88831L26 8.038C26 6.17625 25.2907 4.38894 24.0248 3.0608C23.4027 2.40843 22.6608 1.89023 21.8423 1.53642C21.0239 1.1826 20.1453 1.00025 19.2578 1L19.258 0.750003M2.79428 2.88831C1.48331 4.2637 0.75 6.11307 0.75 8.038C0.75 9.96293 1.48331 11.8123 2.79428 13.1877L2.79473 13.1882L13.3195 24.173L13.5 24.3614L13.6805 24.173L24.2053 13.1882L24.2057 13.1877C25.5167 11.8123 26.25 9.96293 26.25 8.038C26.25 6.11307 25.5167 4.2637 24.2057 2.88831L24.2057 2.88827C23.5607 2.21191 22.7911 1.67422 21.9415 1.30694C21.092 0.939682 20.1798 0.750284 19.258 0.750003M2.79428 2.88831L19.258 0.750003M23.9615 8.0288C23.9615 9.3425 23.4601 10.6021 22.5677 11.5358L23.9615 8.0288Z" fill="white" stroke="white" stroke-width="0.5"/>
</svg>
