<svg width="14" height="8" viewBox="0 0 14 8" fill="none" xmlns="http://www.w3.org/2000/svg">
<path fill-rule="evenodd" clip-rule="evenodd" d="M13.0963 0.139307C13.2955 0.330544 13.3019 0.647061 13.1107 0.846267L9.75069 4.34627C9.65641 4.44448 9.52615 4.5 9.39 4.5C9.25385 4.5 9.12359 4.44448 9.02931 4.34627L6.99 2.22199L4.57335 4.73933L6.29513 6.39223L0.75 8L2.13019 2.3939L3.85197 4.0468L6.62931 1.15373C6.72359 1.05552 6.85385 1 6.99 1C7.12615 1 7.25641 1.05552 7.35069 1.15373L9.39 3.27801L12.3893 0.153735C12.5805 -0.0454709 12.8971 -0.0519304 13.0963 0.139307Z" fill="#F5BCBC"/>
</svg>
