<svg width="17" height="25" viewBox="0 0 17 25" fill="none" xmlns="http://www.w3.org/2000/svg">
<path fill-rule="evenodd" clip-rule="evenodd" d="M1.92596 10.9338H14.9167V6.69533C14.9167 3.10804 12.0086 0.199951 8.42134 0.199951C4.83405 0.199951 1.92596 3.10802 1.92596 6.69533V10.9338ZM3.85106 10.1632H13.0547L13.0547 6.45309C13.0547 3.91157 10.9944 1.85128 8.45288 1.85128C5.91136 1.85128 3.85106 3.91159 3.85106 6.45309V10.1632Z" fill="#808896"/>
<path d="M16.9541 10.7967V22.9616C16.9541 23.6457 16.3995 24.2002 15.7155 24.2002H1.23859C0.554562 24.2002 0 23.6457 0 22.9616V10.7967C0 10.1127 0.554562 9.55811 1.23859 9.55811H15.7155C16.3995 9.55811 16.9541 10.1127 16.9541 10.7967Z" fill="#00BF00"/>
<path d="M9.45017 17.3419V19.4133C9.45017 19.9444 9.01962 20.375 8.48851 20.375C7.97314 20.375 7.54939 19.9687 7.52771 19.4538L7.4388 17.3419L7.43878 17.2997C7.43875 17.2356 7.40703 17.1753 7.35338 17.1402C6.80091 16.7794 6.4324 16.1603 6.41918 15.4543C6.39793 14.32 7.32873 13.3638 8.46324 13.3558C9.60734 13.3477 10.5373 14.2727 10.5373 15.415C10.5373 16.1629 10.1386 16.8177 9.54212 17.1784C9.48492 17.2129 9.45018 17.2751 9.45017 17.3419Z" fill="white"/>
<path opacity="0.25" d="M5.30238 10.6306H2.51817C1.73129 10.6306 1.09338 11.2216 1.09338 11.9505V17.4221C1.09338 17.6337 1.40987 17.6882 1.49175 17.4907C2.14798 15.9077 3.58952 12.8976 5.62635 11.2639C5.8991 11.0451 5.7345 10.6306 5.37373 10.6306H5.30238Z" fill="white"/>
<path d="M2.82122 8.37623C2.82122 8.37623 1.77992 2.50505 6.17615 1.39738C6.27003 1.37372 6.32587 1.50403 6.24152 1.55156C5.60709 1.90908 2.77253 4.16519 3.08458 8.37623C3.08458 8.37623 2.85964 8.64943 2.82122 8.37623Z" fill="#333371"/>
<path d="M16.9536 10.7962V22.9612C16.9536 23.6452 16.399 24.1997 15.715 24.1997H8.84204C14.018 21.432 14.4547 14.0184 14.4009 10.9338C14.3859 10.0798 14.3334 9.55762 14.3334 9.55762H15.715C16.399 9.55762 16.9536 10.1122 16.9536 10.7962Z" fill="#33CC33"/>
</svg>
