<svg width="18" height="18" viewBox="0 0 18 18" fill="none" xmlns="http://www.w3.org/2000/svg">
<path d="M14.9999 6.135V2.25C14.9999 2.05109 14.9209 1.86032 14.7803 1.71967C14.6396 1.57902 14.4488 1.5 14.2499 1.5C14.051 1.5 13.8603 1.57902 13.7196 1.71967C13.579 1.86032 13.4999 2.05109 13.4999 2.25V6.135C13.0656 6.29265 12.6903 6.58022 12.4251 6.95862C12.1599 7.33703 12.0176 7.78791 12.0176 8.25C12.0176 8.71209 12.1599 9.16297 12.4251 9.54138C12.6903 9.91978 13.0656 10.2073 13.4999 10.365V15.75C13.4999 15.9489 13.579 16.1397 13.7196 16.2803C13.8603 16.421 14.051 16.5 14.2499 16.5C14.4488 16.5 14.6396 16.421 14.7803 16.2803C14.9209 16.1397 14.9999 15.9489 14.9999 15.75V10.365C15.4343 10.2073 15.8096 9.91978 16.0748 9.54138C16.34 9.16297 16.4823 8.71209 16.4823 8.25C16.4823 7.78791 16.34 7.33703 16.0748 6.95862C15.8096 6.58022 15.4343 6.29265 14.9999 6.135ZM14.2499 9C14.1016 9 13.9566 8.95601 13.8333 8.8736C13.7099 8.79119 13.6138 8.67406 13.557 8.53701C13.5003 8.39997 13.4854 8.24917 13.5143 8.10368C13.5433 7.9582 13.6147 7.82456 13.7196 7.71967C13.8245 7.61478 13.9581 7.54335 14.1036 7.51441C14.2491 7.48547 14.3999 7.50032 14.5369 7.55709C14.674 7.61386 14.7911 7.70999 14.8735 7.83332C14.9559 7.95666 14.9999 8.10166 14.9999 8.25C14.9999 8.44891 14.9209 8.63968 14.7803 8.78033C14.6396 8.92098 14.4488 9 14.2499 9ZM9.74994 10.635V2.25C9.74994 2.05109 9.67092 1.86032 9.53027 1.71967C9.38961 1.57902 9.19885 1.5 8.99994 1.5C8.80102 1.5 8.61026 1.57902 8.46961 1.71967C8.32895 1.86032 8.24994 2.05109 8.24994 2.25V10.635C7.81557 10.7927 7.44028 11.0802 7.17507 11.4586C6.90985 11.837 6.76758 12.2879 6.76758 12.75C6.76758 13.2121 6.90985 13.663 7.17507 14.0414C7.44028 14.4198 7.81557 14.7073 8.24994 14.865V15.75C8.24994 15.9489 8.32895 16.1397 8.46961 16.2803C8.61026 16.421 8.80102 16.5 8.99994 16.5C9.19885 16.5 9.38961 16.421 9.53027 16.2803C9.67092 16.1397 9.74994 15.9489 9.74994 15.75V14.865C10.1843 14.7073 10.5596 14.4198 10.8248 14.0414C11.09 13.663 11.2323 13.2121 11.2323 12.75C11.2323 12.2879 11.09 11.837 10.8248 11.4586C10.5596 11.0802 10.1843 10.7927 9.74994 10.635ZM8.99994 13.5C8.8516 13.5 8.70659 13.456 8.58326 13.3736C8.45992 13.2912 8.36379 13.1741 8.30703 13.037C8.25026 12.9 8.23541 12.7492 8.26435 12.6037C8.29329 12.4582 8.36472 12.3246 8.46961 12.2197C8.57449 12.1148 8.70813 12.0434 8.85362 12.0144C8.9991 11.9855 9.1499 12.0003 9.28695 12.0571C9.42399 12.1139 9.54113 12.21 9.62354 12.3333C9.70595 12.4567 9.74994 12.6017 9.74994 12.75C9.74994 12.9489 9.67092 13.1397 9.53027 13.2803C9.38961 13.421 9.19885 13.5 8.99994 13.5ZM4.49994 4.635V2.25C4.49994 2.05109 4.42092 1.86032 4.28027 1.71967C4.13961 1.57902 3.94885 1.5 3.74994 1.5C3.55102 1.5 3.36026 1.57902 3.21961 1.71967C3.07895 1.86032 2.99994 2.05109 2.99994 2.25V4.635C2.56557 4.79265 2.19028 5.08022 1.92507 5.45862C1.65985 5.83703 1.51758 6.28791 1.51758 6.75C1.51758 7.21209 1.65985 7.66297 1.92507 8.04138C2.19028 8.41978 2.56557 8.70735 2.99994 8.865V15.75C2.99994 15.9489 3.07895 16.1397 3.21961 16.2803C3.36026 16.421 3.55102 16.5 3.74994 16.5C3.94885 16.5 4.13961 16.421 4.28027 16.2803C4.42092 16.1397 4.49994 15.9489 4.49994 15.75V8.865C4.9343 8.70735 5.30959 8.41978 5.5748 8.04138C5.84002 7.66297 5.98229 7.21209 5.98229 6.75C5.98229 6.28791 5.84002 5.83703 5.5748 5.45862C5.30959 5.08022 4.9343 4.79265 4.49994 4.635ZM3.74994 7.5C3.6016 7.5 3.45659 7.45601 3.33326 7.3736C3.20992 7.29119 3.11379 7.17406 3.05703 7.03701C3.00026 6.89997 2.98541 6.74917 3.01435 6.60368C3.04329 6.4582 3.11472 6.32456 3.21961 6.21967C3.3245 6.11478 3.45813 6.04335 3.60362 6.01441C3.7491 5.98547 3.8999 6.00032 4.03695 6.05709C4.17399 6.11386 4.29113 6.20999 4.37354 6.33332C4.45595 6.45666 4.49994 6.60166 4.49994 6.75C4.49994 6.94891 4.42092 7.13968 4.28027 7.28033C4.13961 7.42098 3.94885 7.5 3.74994 7.5Z" fill="#CB2E79"/>
</svg>
