<svg width="35" height="35" viewBox="0 0 35 35" fill="none" xmlns="http://www.w3.org/2000/svg">
<path d="M8.74967 18.9583H2.91634C2.52957 18.9583 2.15863 19.1119 1.88514 19.3854C1.61165 19.6589 1.45801 20.0298 1.45801 20.4166L1.45801 32.0833C1.45801 32.47 1.61165 32.841 1.88514 33.1144C2.15863 33.3879 2.52957 33.5416 2.91634 33.5416H8.74967C9.13645 33.5416 9.50738 33.3879 9.78087 33.1144C10.0544 32.841 10.208 32.47 10.208 32.0833L10.208 20.4166C10.208 20.0298 10.0544 19.6589 9.78087 19.3854C9.50738 19.1119 9.13645 18.9583 8.74967 18.9583ZM7.29134 30.6249H4.37467L4.37467 21.8749H7.29134L7.29134 30.6249ZM32.083 13.1249L26.2497 13.1249C25.8629 13.1249 25.492 13.2786 25.2185 13.5521C24.945 13.8255 24.7913 14.1965 24.7913 14.5833V32.0833C24.7913 32.47 24.945 32.841 25.2185 33.1144C25.492 33.3879 25.8629 33.5416 26.2497 33.5416H32.083C32.4698 33.5416 32.8407 33.3879 33.1142 33.1144C33.3877 32.841 33.5413 32.47 33.5413 32.0833L33.5413 14.5833C33.5413 14.1965 33.3877 13.8255 33.1142 13.5521C32.8407 13.2786 32.4698 13.1249 32.083 13.1249ZM30.6247 30.6249H27.708V16.0416L30.6247 16.0416V30.6249ZM20.4163 1.45825L14.583 1.45825C14.1962 1.45825 13.8253 1.6119 13.5518 1.88539C13.2783 2.15888 13.1247 2.52981 13.1247 2.91659L13.1247 32.0833C13.1247 32.47 13.2783 32.841 13.5518 33.1144C13.8253 33.3879 14.1962 33.5416 14.583 33.5416H20.4163C20.8031 33.5416 21.174 33.3879 21.4475 33.1144C21.721 32.841 21.8747 32.47 21.8747 32.0833L21.8747 2.91659C21.8747 2.52981 21.721 2.15888 21.4475 1.88539C21.174 1.6119 20.8031 1.45825 20.4163 1.45825ZM18.958 30.6249H16.0413L16.0413 4.37492L18.958 4.37492L18.958 30.6249Z" fill="#662577"/>
</svg>
