<svg width="27" height="40" viewBox="0 0 27 40" fill="none" xmlns="http://www.w3.org/2000/svg">
<path d="M15.3584 33.5424C14.6802 33.7131 14.1998 34.4396 14.362 35.143C14.4014 35.2753 14.4491 35.4051 14.5046 35.5316C14.4761 35.5447 14.4462 35.5548 14.4155 35.5618C14.0171 35.5618 13.6187 35.5573 13.2204 35.5618C13.1045 35.5618 13.0822 35.4942 13.0822 35.4053C13.0769 35.1839 13.0929 34.9696 13.0769 34.7393C13.0608 34.509 13.0448 34.2751 12.8549 34.0973C12.3033 33.5815 11.6518 33.5193 10.9664 33.6704C10.3889 33.7976 9.92364 34.1408 9.5315 34.5792C9.38712 34.7402 9.24808 34.9047 9.06983 35.1074V33.8305C8.88535 33.8589 8.7267 33.8794 8.56984 33.9105C8.52648 33.9177 8.48766 33.9416 8.46169 33.977C8.43571 34.0124 8.42463 34.0565 8.43081 34.0999C8.43081 34.4449 8.42279 34.7891 8.41744 35.1341C8.41744 35.343 8.30336 35.5004 8.0957 35.5209C7.81229 35.5502 7.52442 35.5413 7.24011 35.5627C7.06186 35.576 7.01997 35.5084 7.01997 35.343C7.02776 35.0541 7.00415 34.7652 6.94956 34.4814C6.86931 34.1787 6.67344 33.9194 6.40391 33.759C6.13438 33.5986 5.81262 33.5499 5.50753 33.6233V33.8563C5.91216 33.8083 6.22053 33.9123 6.32837 34.4014C6.40412 34.7402 6.35511 35.1065 6.35511 35.4622C6.35511 35.4898 6.25083 35.5405 6.19379 35.5405C5.73658 35.5467 5.28026 35.5467 4.82306 35.5467C4.76602 35.5467 4.67422 35.5654 4.65729 35.6018C4.59851 35.7499 4.54763 35.901 4.50488 36.0544H4.74552C7.241 36.0598 9.73648 36.0598 12.232 36.0544C12.396 36.0544 12.4557 36.0882 12.4512 36.2661C12.4441 36.7213 12.4512 37.1775 12.4512 37.6337C12.4512 37.6826 12.4423 37.7315 12.4325 37.8284C12.3176 37.6963 12.1744 37.5916 12.0135 37.5221C11.8526 37.4525 11.6781 37.4198 11.5029 37.4265C11.158 37.4354 10.8202 37.5394 10.5823 37.8231C10.1883 38.2935 10.2035 39.012 10.5324 39.4788C10.6108 39.5958 10.7124 39.6956 10.8309 39.772C10.9493 39.8485 11.0822 39.9 11.2213 39.9234C11.6669 39.9946 12.0689 39.8594 12.4343 39.5428C12.445 39.678 12.453 39.774 12.461 39.8745H12.9904C12.9904 39.8132 13.0002 39.7696 13.0002 39.7242C13.0115 38.5937 13.0252 37.4656 13.0412 36.3399C13.0412 36.034 13.0109 36.0633 13.33 36.0633C13.887 36.058 14.444 36.0749 15.0002 36.058C15.3679 36.0497 15.7346 36.015 16.0973 35.9539C16.4582 35.8935 16.8228 35.6258 16.8397 35.1536C16.8584 34.6415 16.8753 34.1328 16.8941 33.5993C16.3896 33.4659 15.8932 33.4117 15.3584 33.5424ZM11.6535 39.4921H11.6411C11.5357 39.4902 11.4318 39.4675 11.3352 39.4255C11.2387 39.3834 11.1514 39.3228 11.0783 39.2471C11.0052 39.1714 10.9478 39.082 10.9093 38.9842C10.8709 38.8863 10.8521 38.7818 10.8541 38.6767C10.8541 38.6584 10.8541 38.6397 10.8541 38.6207C10.8578 38.5193 10.8814 38.4196 10.9238 38.3273C10.9661 38.235 11.0262 38.1519 11.1006 38.0828C11.1751 38.0137 11.2625 37.9599 11.3579 37.9245C11.4532 37.8891 11.5546 37.8727 11.6562 37.8764C12.0653 37.8764 12.4949 38.2321 12.4459 38.6661C12.4922 39.1116 12.0956 39.4975 11.6535 39.4921ZM12.4557 35.4088C12.4557 35.4978 12.4289 35.552 12.3264 35.552H9.4807C9.44545 35.544 9.41089 35.5333 9.37731 35.52C9.45812 35.3728 9.54956 35.2316 9.65092 35.0976C9.98068 34.7179 10.3363 34.356 10.8185 34.1782C11.0356 34.0926 11.2687 34.0549 11.5018 34.0678C11.7349 34.0807 11.9624 34.1438 12.1687 34.2529C12.363 34.356 12.4361 34.5454 12.4521 34.7606C12.4681 34.9758 12.4521 35.1937 12.4521 35.4097L12.4557 35.4088ZM15.3968 35.5244C15.3073 35.5066 15.2249 35.4636 15.159 35.4006C15.0932 35.3376 15.0467 35.2572 15.0251 35.1688C14.936 34.8486 14.936 34.5214 15.1027 34.22C15.1565 34.1126 15.2394 34.0224 15.3419 33.9595C15.4444 33.8967 15.5625 33.8637 15.6829 33.8643H16.1971C16.231 34.1888 16.2764 34.4867 16.2862 34.7962C16.305 35.319 15.8977 35.6383 15.3905 35.5253L15.3968 35.5244Z" fill="#595959"/>
<path d="M11.4547 39.9973C11.3735 39.9969 11.2925 39.9903 11.2123 39.9777C11.0659 39.9527 10.9261 39.8983 10.8014 39.8177C10.6767 39.7372 10.5697 39.6322 10.4868 39.5091C10.1259 38.996 10.1482 38.2562 10.5403 37.7885C10.7631 37.5217 11.0866 37.383 11.5011 37.3714C11.6645 37.3654 11.8275 37.3919 11.9805 37.4495C12.1336 37.5071 12.2736 37.5945 12.3923 37.7067C12.3923 37.6773 12.3968 37.6551 12.3968 37.6338C12.3968 37.4817 12.3968 37.3297 12.3968 37.1776C12.3968 36.8788 12.3968 36.5694 12.3968 36.2653C12.4042 36.221 12.3953 36.1755 12.3718 36.1372C12.3531 36.1176 12.3112 36.1096 12.2328 36.1096C9.74889 36.115 7.23023 36.115 4.74633 36.1096H4.43262L4.45222 36.0394C4.49538 35.8835 4.54684 35.7301 4.60641 35.5797C4.64741 35.4907 4.8212 35.4907 4.82298 35.4907C5.2686 35.4907 5.73651 35.4907 6.19282 35.4845C6.23137 35.4802 6.26833 35.4668 6.30066 35.4454C6.30066 35.3494 6.30066 35.2533 6.30779 35.1564C6.32828 34.9079 6.3172 34.6578 6.27482 34.4121C6.18569 34.0075 5.95664 33.8573 5.5137 33.9097L5.4522 33.9168V33.5798L5.49498 33.5691C5.81453 33.4931 6.1512 33.5444 6.43346 33.7121C6.71571 33.8798 6.9213 34.1507 7.00653 34.4673C7.06246 34.7563 7.08667 35.0506 7.07872 35.3449C7.07872 35.4196 7.08942 35.465 7.11259 35.4863C7.15078 35.5094 7.19626 35.5173 7.24004 35.5085C7.36748 35.4988 7.49582 35.4952 7.6206 35.4916C7.77656 35.4872 7.93788 35.4827 8.09474 35.4667C8.2516 35.4507 8.36211 35.328 8.36746 35.1333L8.37192 34.8541C8.37192 34.6069 8.38083 34.3517 8.37994 34.1C8.37326 34.0434 8.38884 33.9863 8.4234 33.9409C8.45797 33.8955 8.50883 33.8652 8.56532 33.8564C8.67761 33.8341 8.79347 33.8172 8.91646 33.7986L9.06619 33.7763L9.12858 33.7666V34.9617L9.2382 34.8354C9.32733 34.7322 9.41021 34.6371 9.49488 34.5428C9.94763 34.0369 10.4262 33.7345 10.9592 33.6172C11.7613 33.4393 12.3914 33.5852 12.8968 34.0573C13.1017 34.2494 13.1196 34.4966 13.1356 34.7349C13.1454 34.8763 13.1436 35.0115 13.1419 35.1422C13.1419 35.2311 13.1419 35.32 13.1419 35.4045C13.1371 35.4355 13.1441 35.4672 13.1615 35.4934C13.1802 35.5056 13.2025 35.5112 13.2247 35.5094C13.4921 35.5094 13.7595 35.5094 14.0215 35.5094H14.4137L14.4359 35.5041C14.3894 35.3918 14.3487 35.2773 14.3138 35.1608C14.2386 34.8032 14.3041 34.4303 14.4969 34.1196C14.6897 33.8088 14.995 33.584 15.3495 33.4918V33.4918C15.8343 33.3735 16.3156 33.3913 16.91 33.5496L16.9519 33.5603L16.9314 34.1605C16.9198 34.4966 16.9082 34.8265 16.8958 35.1582C16.8779 35.6588 16.4876 35.9469 16.1079 36.0109C15.7418 36.071 15.3719 36.1051 15.001 36.1132C14.6659 36.123 14.3236 36.1212 13.993 36.1185C13.7729 36.1185 13.5518 36.1185 13.3308 36.1185H13.2533C13.2038 36.1139 13.1539 36.1169 13.1053 36.1274C13.0958 36.1715 13.0928 36.2167 13.0964 36.2617V36.3417C13.0804 37.4681 13.0667 38.5962 13.0554 39.7261C13.0554 39.7537 13.0554 39.7821 13.0501 39.815C13.0447 39.8479 13.0501 39.8559 13.0447 39.8799V39.9315H12.4128L12.3905 39.6541C12.1277 39.8729 11.797 39.9941 11.4547 39.9973ZM11.5483 37.4808H11.5046C11.1223 37.4915 10.8255 37.6178 10.6241 37.8587C10.4477 38.0841 10.3479 38.3597 10.3394 38.6455C10.3309 38.9313 10.4141 39.2124 10.5769 39.4478C10.6516 39.5584 10.748 39.6528 10.8603 39.7252C10.9725 39.7977 11.0984 39.8467 11.2301 39.8693C11.6526 39.9368 12.0323 39.8159 12.3986 39.502L12.4805 39.4309L12.5117 39.8195H12.9395V39.8043C12.9395 39.7759 12.9395 39.7501 12.9395 39.7243C12.952 38.5938 12.9657 37.4654 12.9805 36.3391C12.9805 36.3106 12.9805 36.2839 12.9805 36.2608C12.9805 36.1505 12.9805 36.0901 13.0224 36.0483C13.0643 36.0065 13.1249 36.0074 13.2479 36.0083H13.3344C13.5554 36.0083 13.78 36.0083 13.9983 36.0083C14.3281 36.0083 14.6686 36.0127 15.0028 36.0029C15.3672 35.9941 15.7306 35.9593 16.0901 35.8989C16.4011 35.8473 16.7701 35.6197 16.787 35.1511C16.7986 34.8194 16.8102 34.4895 16.8218 34.1525L16.8396 33.6403C16.2835 33.498 15.8307 33.4838 15.3762 33.5949C14.7131 33.7612 14.2666 34.4788 14.4199 35.1297C14.4582 35.2588 14.5046 35.3853 14.5589 35.5085L14.5803 35.5574L14.5322 35.5806C14.4999 35.5954 14.4662 35.6067 14.4315 35.6143H14.4199H14.0215C13.7541 35.6143 13.4868 35.6143 13.2256 35.6143C13.1999 35.6165 13.174 35.6133 13.1496 35.6049C13.1252 35.5965 13.1028 35.583 13.0839 35.5654C13.0647 35.5432 13.0502 35.5173 13.0412 35.4894C13.0322 35.4614 13.0288 35.432 13.0313 35.4027C13.0313 35.3138 13.0313 35.2249 13.0313 35.1359C13.0313 35.007 13.0313 34.8736 13.026 34.7376C13.0099 34.5099 12.9948 34.293 12.821 34.132C12.3442 33.6874 11.7426 33.5514 10.9815 33.7185C10.4717 33.8306 10.0127 34.1222 9.57599 34.6078C9.49221 34.6967 9.40932 34.7963 9.3202 34.8994L9.11432 35.1359L9.01807 35.2444V33.8946L8.92894 33.907C8.80773 33.9248 8.69276 33.9417 8.58136 33.964C8.55192 33.9688 8.52551 33.9848 8.50771 34.0087C8.48992 34.0326 8.48213 34.0625 8.486 34.092C8.486 34.3525 8.48599 34.6086 8.47797 34.8558L8.47352 35.1351C8.47352 35.3849 8.32646 35.553 8.10187 35.5752C7.94144 35.5921 7.77835 35.5966 7.61971 35.601C7.49671 35.601 7.36927 35.6081 7.24538 35.617C7.20873 35.6241 7.17098 35.6233 7.13469 35.6145C7.09839 35.6058 7.06441 35.5893 7.03505 35.5663C7.0088 35.5358 6.98909 35.5003 6.97713 35.4619C6.96518 35.4235 6.96123 35.3831 6.96553 35.3431C6.97356 35.0578 6.95055 34.7725 6.89691 34.4922C6.81998 34.2114 6.63929 33.9702 6.39122 33.8171C6.14316 33.664 5.84616 33.6103 5.56004 33.667V33.7959C5.86485 33.7701 6.25254 33.8235 6.37909 34.3899C6.42401 34.6446 6.436 34.904 6.41474 35.1617C6.41474 35.2622 6.40672 35.3627 6.40672 35.4623C6.40672 35.5423 6.25343 35.5948 6.19104 35.5948C5.73383 35.6019 5.2695 35.6019 4.82031 35.6019C4.77916 35.6005 4.73835 35.6097 4.70177 35.6286C4.65632 35.7468 4.61265 35.8731 4.57522 35.9994H4.74277C7.22667 36.0056 9.74532 36.0056 12.2292 35.9994C12.2677 35.9944 12.3069 35.9973 12.3443 36.0078C12.3816 36.0183 12.4165 36.0364 12.4467 36.0607C12.4698 36.0896 12.4868 36.1229 12.4966 36.1585C12.5064 36.1941 12.5088 36.2313 12.5037 36.2679C12.4984 36.5703 12.5037 36.8788 12.5037 37.1776C12.5037 37.3297 12.5037 37.4817 12.5037 37.6338C12.5026 37.6725 12.4994 37.711 12.4939 37.7494C12.4939 37.7734 12.4877 37.8009 12.4841 37.8383L12.4716 37.9646L12.3888 37.8685C12.2851 37.748 12.1568 37.651 12.0125 37.5841C11.8681 37.5172 11.711 37.482 11.5519 37.4808H11.5483ZM11.6615 39.5483H11.641C11.5286 39.5462 11.4176 39.522 11.3146 39.4771C11.2115 39.4322 11.1183 39.3675 11.0403 39.2866C10.9624 39.2058 10.9011 39.1104 10.8601 39.0059C10.8191 38.9014 10.7992 38.7899 10.8014 38.6777C10.8014 38.6608 10.8014 38.6404 10.8014 38.6208C10.8048 38.5119 10.8297 38.4048 10.8747 38.3055C10.9197 38.2063 10.9839 38.1169 11.0637 38.0425C11.1435 37.9681 11.2372 37.9102 11.3395 37.8721C11.4418 37.834 11.5506 37.8165 11.6597 37.8205C11.7832 37.8236 11.9047 37.8518 12.0168 37.9033C12.129 37.9548 12.2295 38.0286 12.3121 38.1202C12.3799 38.1927 12.4317 38.2786 12.4642 38.3723C12.4968 38.4661 12.5093 38.5655 12.501 38.6644C12.5101 38.7733 12.496 38.883 12.4596 38.9861C12.4232 39.0893 12.3653 39.1836 12.2898 39.2628C12.2105 39.3511 12.1137 39.422 12.0056 39.4711C11.8975 39.5202 11.7803 39.5465 11.6615 39.5483V39.5483ZM11.6321 37.9317C11.4456 37.9315 11.2662 38.0035 11.1318 38.1325C10.9973 38.2615 10.9182 38.4375 10.9111 38.6235V38.6759C10.9088 38.7741 10.926 38.8717 10.9617 38.9632C10.9974 39.0547 11.0509 39.1383 11.119 39.2091C11.1872 39.2799 11.2687 39.3366 11.3589 39.3759C11.4491 39.4151 11.5462 39.4363 11.6446 39.438H11.6544C11.7596 39.4388 11.8637 39.4172 11.9599 39.3747C12.0561 39.3323 12.1421 39.2699 12.2123 39.1917C12.277 39.1225 12.3263 39.0405 12.357 38.951C12.3878 38.8615 12.3992 38.7666 12.3905 38.6724V38.6608C12.3984 38.5763 12.3881 38.4911 12.3603 38.4109C12.3324 38.3307 12.2878 38.2573 12.2292 38.1958C12.1572 38.1146 12.0692 38.0491 11.9708 38.0032C11.8724 37.9574 11.7656 37.9321 11.657 37.929H11.6285L11.6321 37.9317ZM12.3228 35.6081H9.47082C9.43238 35.6001 9.39479 35.5885 9.35852 35.5734L9.30148 35.5503L9.33089 35.4961C9.41319 35.3468 9.50612 35.2035 9.60896 35.0675C9.91822 34.7118 10.2881 34.3188 10.8014 34.1294C11.0258 34.041 11.2667 34.0023 11.5074 34.0158C11.7482 34.0293 11.9832 34.0948 12.1962 34.2076C12.3879 34.309 12.493 34.4957 12.5082 34.7598C12.5171 34.9056 12.5144 35.0533 12.5082 35.1964C12.5082 35.2684 12.5082 35.3396 12.5082 35.4116C12.5126 35.4661 12.4953 35.5201 12.4601 35.5619C12.4415 35.5785 12.4198 35.5912 12.3962 35.5992C12.3726 35.6071 12.3476 35.6102 12.3228 35.6081ZM9.48686 35.4979H12.3228C12.3432 35.4999 12.3636 35.4949 12.3807 35.4836C12.395 35.4622 12.4007 35.4362 12.3968 35.4107V35.4107C12.3968 35.3387 12.3968 35.2658 12.3968 35.1937C12.3968 35.0524 12.4021 34.9065 12.3968 34.766C12.3834 34.5384 12.2996 34.3872 12.1419 34.3028C11.9427 34.1974 11.723 34.1365 11.4979 34.124C11.2728 34.1116 11.0476 34.148 10.838 34.2307C10.3478 34.4086 9.98952 34.7927 9.69096 35.1351C9.6057 35.2488 9.52743 35.3676 9.45656 35.4907L9.48686 35.4979ZM15.5883 35.6028C15.5178 35.6026 15.4476 35.5945 15.3789 35.5788C15.2797 35.5582 15.1883 35.5101 15.1152 35.4402C15.0421 35.3702 14.9901 35.2811 14.9653 35.1831C14.8611 34.8096 14.8896 34.4717 15.0482 34.1943C15.1059 34.0785 15.1949 33.9812 15.3052 33.9133C15.4154 33.8455 15.5425 33.8097 15.6721 33.8101H16.2398V33.8599C16.2496 33.9542 16.2612 34.0467 16.2719 34.1374C16.2977 34.3632 16.3227 34.5766 16.3307 34.7954C16.3421 34.899 16.3311 35.0038 16.2984 35.1028C16.2657 35.2017 16.2121 35.2926 16.1413 35.3691C16.0704 35.4456 15.9839 35.5061 15.8875 35.5464C15.7912 35.5867 15.6874 35.606 15.583 35.6028H15.5883ZM15.6774 33.9195C15.5678 33.919 15.4602 33.9493 15.3669 34.0068C15.2736 34.0643 15.1984 34.1468 15.1498 34.245C15.0019 34.5073 14.9787 34.8043 15.0759 35.1546C15.0953 35.2331 15.1365 35.3046 15.1949 35.3608C15.2532 35.4169 15.3263 35.4555 15.4056 35.4721V35.4721C15.5091 35.5004 15.6179 35.5042 15.7231 35.483C15.8284 35.4618 15.9272 35.4164 16.0117 35.3503C16.0888 35.282 16.1488 35.1966 16.1869 35.101C16.2249 35.0054 16.24 34.9023 16.2309 34.7998C16.222 34.5855 16.1979 34.3739 16.1712 34.1498C16.1623 34.0742 16.1534 33.9977 16.1453 33.9195H15.6766H15.6774Z" fill="#595959"/>
<path d="M2.91834 37.4622C2.7786 37.4917 2.64627 37.549 2.52927 37.6308C2.41227 37.7125 2.31301 37.817 2.23743 37.9379C2.08859 37.5396 1.78111 37.4097 1.42462 37.4355C1.2544 37.4421 1.08873 37.4922 0.943456 37.5809C0.798179 37.6697 0.678156 37.7941 0.594867 37.9424L0.550305 37.9095C0.53961 37.7859 0.528024 37.6632 0.517329 37.536H0.0556641V39.8889H0.590411C0.590411 39.5056 0.590411 39.1366 0.590411 38.772C0.587768 38.5415 0.665241 38.3171 0.809657 38.1371C0.937104 37.9593 1.24815 37.8463 1.43353 37.9406C1.61891 38.0348 1.66525 38.2074 1.66525 38.4119C1.6599 38.7969 1.66525 39.1819 1.66525 39.5679V39.8782H2.21247V38.8209C2.20749 38.6677 2.23869 38.5154 2.30356 38.3763C2.36842 38.2373 2.46514 38.1155 2.58591 38.0206C2.65504 37.9662 2.73731 37.9309 2.82445 37.9183C2.91159 37.9056 3.00052 37.9161 3.08233 37.9486C3.24186 38.0046 3.29088 38.1665 3.29088 38.3381V39.6719C3.29088 39.7395 3.29801 39.8079 3.30247 39.8835H3.82652C3.8374 39.8617 3.84491 39.8383 3.8488 39.8142C3.8488 39.2353 3.87732 38.6582 3.84345 38.0793C3.81671 37.6169 3.36396 37.3582 2.91834 37.4622Z" fill="#595959"/>
<path d="M0.64526 39.9439H0V37.4807H0.567722V37.5314L0.586438 37.7448L0.594459 37.8337C0.687554 37.7 0.810441 37.5896 0.953478 37.5113C1.09651 37.4329 1.25581 37.3886 1.41886 37.382C1.80477 37.3536 2.08997 37.5065 2.24504 37.8266C2.40838 37.6126 2.6434 37.4642 2.90724 37.4087C3.02807 37.3794 3.1538 37.3764 3.2759 37.3999C3.39799 37.4234 3.5136 37.4728 3.61489 37.5447C3.69891 37.6071 3.76795 37.6873 3.81698 37.7796C3.86601 37.8719 3.89379 37.9739 3.8983 38.0783C3.92236 38.4882 3.91613 38.9061 3.90989 39.3107C3.90989 39.4788 3.90454 39.6478 3.90365 39.8158C3.8998 39.8483 3.89045 39.8798 3.87602 39.9092L3.86087 39.9403H3.25037V39.8887C3.25037 39.8647 3.25037 39.8425 3.24502 39.8203C3.24502 39.7696 3.23789 39.7216 3.23789 39.6735V38.3362C3.23789 38.1521 3.18085 38.0383 3.06677 37.9982C2.99346 37.9689 2.91371 37.9593 2.8355 37.9704C2.75729 37.9815 2.68338 38.0128 2.62115 38.0614C2.50683 38.151 2.41506 38.2659 2.35317 38.3972C2.29127 38.5284 2.26096 38.6722 2.26465 38.8172V39.9367H1.60959V39.5713C1.60959 39.4423 1.60959 39.3143 1.60959 39.1854C1.60959 38.9328 1.60959 38.6714 1.60959 38.4144C1.60959 38.1912 1.54987 38.0649 1.40817 37.9929C1.24418 37.9093 0.962543 38.024 0.853811 38.1708C0.716452 38.3412 0.642732 38.554 0.64526 38.7728C0.64526 39.0155 0.64526 39.2592 0.64526 39.5081C0.64526 39.6344 0.64526 39.7616 0.64526 39.8905V39.9439ZM0.110514 39.8336H0.535637C0.535637 39.7233 0.535637 39.6148 0.535637 39.5064C0.535637 39.2574 0.535637 39.0137 0.535637 38.7728C0.533045 38.5296 0.614923 38.293 0.767361 38.1032C0.901939 37.9182 1.2415 37.7804 1.45897 37.8915C1.69336 38.0107 1.7201 38.2472 1.7201 38.4117C1.7201 38.6687 1.7201 38.9293 1.7201 39.1818C1.7201 39.3098 1.7201 39.4388 1.7201 39.5677V39.8229H2.15859V38.8208C2.15385 38.6599 2.18684 38.5002 2.25492 38.3543C2.32301 38.2084 2.4243 38.0804 2.55074 37.9805C2.62749 37.9202 2.71876 37.8811 2.81542 37.867C2.91207 37.853 3.01073 37.8645 3.10153 37.9004C3.21115 37.9387 3.34484 38.0472 3.34484 38.3406V39.6744C3.34484 39.7198 3.34484 39.7633 3.35108 39.8131V39.8318H3.786C3.78863 39.824 3.79042 39.816 3.79135 39.8078C3.79135 39.6477 3.79135 39.4788 3.7967 39.3098C3.80294 38.907 3.80918 38.4918 3.786 38.0854C3.7819 37.9973 3.75817 37.9112 3.71655 37.8333C3.67492 37.7555 3.61645 37.6879 3.54537 37.6354C3.45692 37.5727 3.35597 37.5298 3.24938 37.5095C3.1428 37.4893 3.03309 37.4922 2.92774 37.5181C2.79584 37.5465 2.67094 37.6009 2.56031 37.678C2.44968 37.7551 2.35554 37.8534 2.28337 37.9671L2.22454 38.056L2.18533 37.952C2.05966 37.615 1.80388 37.4585 1.42777 37.4852C1.26683 37.4918 1.11025 37.5393 0.972851 37.6232C0.835449 37.707 0.721775 37.8245 0.642587 37.9645L0.612284 38.0187L0.497314 37.9298L0.481271 37.7457C0.475924 37.6915 0.471468 37.6372 0.467012 37.5821H0.110514V39.8336Z" fill="#595959"/>
<path d="M6.69854 37.5447C6.68873 37.6488 6.68071 37.7377 6.66912 37.8577C6.62715 37.8307 6.58696 37.801 6.54881 37.7688C6.33977 37.5591 6.05666 37.4395 5.76023 37.4356C5.4638 37.4318 5.17769 37.5441 4.96328 37.7484C4.53549 38.1529 4.49271 38.6554 4.64065 39.1889C4.80821 39.7944 5.4704 40.0568 6.0203 39.9003C6.23776 39.8398 6.43116 39.7055 6.64417 39.6006C6.6513 39.6797 6.66021 39.7838 6.66912 39.886H7.18961V37.5447H6.69854ZM5.90979 39.501C5.53546 39.5215 5.11747 39.0982 5.12549 38.6865C5.13351 38.2419 5.51318 37.8737 5.89642 37.8862C6.37591 37.9013 6.65487 38.1805 6.65487 38.682C6.65487 39.2253 6.4071 39.4708 5.90979 39.4983V39.501Z" fill="#595959"/>
<path d="M5.69701 40C5.48643 40.0004 5.27927 39.9468 5.09542 39.8443C4.97176 39.7773 4.86304 39.686 4.77587 39.5758C4.68869 39.4655 4.62488 39.3388 4.58831 39.2032C4.41006 38.5808 4.52503 38.0881 4.92609 37.7084C5.15026 37.4929 5.45066 37.3744 5.76194 37.3788C6.07322 37.3831 6.37019 37.5099 6.58826 37.7316L6.62391 37.7591L6.64886 37.4924H7.24065V39.9431H6.61678L6.5945 39.6887C6.55261 39.711 6.51161 39.7332 6.4715 39.7563C6.33329 39.8395 6.18583 39.9063 6.03212 39.9555C5.92306 39.9859 5.81025 40.0009 5.69701 40V40ZM5.75227 37.4879C5.47248 37.4884 5.20354 37.5959 5.00095 37.7885C4.63198 38.137 4.53216 38.5888 4.69347 39.1748C4.7268 39.2961 4.78431 39.4096 4.86256 39.5083C4.94081 39.607 5.03819 39.6889 5.1489 39.7492C5.41061 39.8922 5.7179 39.9276 6.00538 39.8479C6.15076 39.8008 6.29014 39.7369 6.4207 39.6576C6.48666 39.6212 6.55261 39.5847 6.62034 39.5518L6.69164 39.5162L6.71927 39.831H7.13459V37.5991H6.75135L6.71838 37.9548L6.64262 37.9059C6.59842 37.8776 6.55614 37.8464 6.51607 37.8125C6.41762 37.7093 6.29909 37.6273 6.16775 37.5715C6.03641 37.5157 5.89503 37.4873 5.75227 37.4879V37.4879ZM5.88417 39.5536C5.6851 39.544 5.49726 39.4587 5.35923 39.3153C5.26903 39.2367 5.19664 39.1399 5.14688 39.0312C5.09711 38.9226 5.07111 38.8046 5.0706 38.6851C5.0701 38.5657 5.0951 38.4475 5.14394 38.3384C5.19279 38.2293 5.26436 38.1319 5.35388 38.0526C5.42522 37.9811 5.51012 37.9246 5.60363 37.8863C5.69713 37.8479 5.79735 37.8286 5.89843 37.8294C6.41446 37.8454 6.71036 38.1548 6.71036 38.6795C6.71036 39.2379 6.44922 39.5233 5.90824 39.5527H5.87972L5.88417 39.5536ZM5.87794 37.9379C5.71027 37.9444 5.5512 38.0136 5.43231 38.1317C5.35648 38.203 5.29554 38.2886 5.25302 38.3835C5.21049 38.4785 5.18722 38.5809 5.18455 38.6848C5.18745 38.7892 5.21144 38.8919 5.25508 38.9868C5.29873 39.0817 5.36113 39.1668 5.43855 39.237C5.49935 39.3014 5.5725 39.3529 5.65364 39.3885C5.73479 39.4241 5.82228 39.443 5.91091 39.4442V39.4442C6.3904 39.4175 6.60341 39.1819 6.60341 38.6795C6.60341 38.2162 6.35297 37.953 5.89843 37.9379H5.87794Z" fill="#595959"/>
<path d="M9.45991 38.6482C9.23799 38.538 9.00538 38.4491 8.77633 38.3548C8.64264 38.2997 8.55174 38.2063 8.58828 38.0614C8.60175 37.9913 8.6413 37.9288 8.69899 37.8866C8.75669 37.8444 8.82825 37.8255 8.89932 37.8337C9.10475 37.8681 9.30824 37.9132 9.50893 37.9689C9.54636 37.9093 9.60429 37.8177 9.67559 37.7021C9.59461 37.6434 9.50839 37.5922 9.41802 37.5492C9.14291 37.4476 8.84348 37.4312 8.55887 37.502C8.42601 37.5291 8.30476 37.5964 8.21162 37.6948C8.11848 37.7931 8.05799 37.9177 8.03838 38.0516C7.9858 38.3432 8.07225 38.5691 8.4029 38.7514C8.58115 38.8474 8.77722 38.8892 8.95547 38.9835C9.05899 39.0347 9.139 39.1235 9.17917 39.2316C9.22462 39.4539 8.94567 39.6397 8.69612 39.5588C8.50807 39.501 8.32893 39.4076 8.12751 39.3232L7.93945 39.5757C8.1079 39.7998 8.33516 39.87 8.56867 39.9198C8.91002 39.9927 9.47774 39.8994 9.65599 39.5206C9.77007 39.2707 9.79413 38.8145 9.45991 38.6482Z" fill="#595959"/>
<path d="M8.80244 39.9973C8.72014 39.9977 8.63802 39.9896 8.55735 39.9733C8.33454 39.9262 8.08054 39.8542 7.89605 39.6088L7.87109 39.5759L8.10906 39.2566L8.14916 39.2726C8.21422 39.3002 8.2775 39.3287 8.33989 39.3562C8.46079 39.4141 8.58521 39.4642 8.71243 39.5065C8.77007 39.5247 8.83139 39.5279 8.89064 39.5159C8.94988 39.504 9.0051 39.4772 9.0511 39.438C9.07994 39.4151 9.1021 39.3848 9.11526 39.3504C9.12843 39.316 9.13212 39.2787 9.12597 39.2424C9.08922 39.151 9.02006 39.0763 8.93167 39.0325C8.84516 38.9898 8.75583 38.9529 8.6643 38.9223C8.56431 38.8892 8.46714 38.8482 8.37376 38.7996C8.04578 38.6217 7.92189 38.3781 7.9825 38.042C8.00392 37.8973 8.06949 37.7628 8.17027 37.6567C8.27106 37.5505 8.40217 37.478 8.54576 37.4488C8.84093 37.3745 9.1518 37.3915 9.43701 37.4978C9.53098 37.5426 9.6205 37.5962 9.70438 37.6578L9.74538 37.688L9.71864 37.7307C9.65804 37.8294 9.60724 37.9086 9.5707 37.969L9.53059 38.0331L9.49138 38.0215C9.29237 37.9668 9.09069 37.9222 8.88711 37.8881C8.8301 37.8822 8.77293 37.8978 8.72689 37.9319C8.68085 37.966 8.6493 38.016 8.63846 38.0722C8.62865 38.1122 8.60013 38.2242 8.79442 38.3043L8.93702 38.3621C9.11527 38.4359 9.30332 38.5115 9.48068 38.5995C9.84787 38.7818 9.83005 39.2709 9.7026 39.5438C9.5502 39.8746 9.13933 39.9973 8.80244 39.9973ZM8.00834 39.575C8.16788 39.7653 8.37821 39.8231 8.58052 39.8666C8.90494 39.936 9.44236 39.8462 9.60635 39.4976C9.72043 39.254 9.72399 38.8405 9.43612 38.6973C9.25787 38.6084 9.07962 38.5364 8.90137 38.4634L8.75877 38.4056C8.58052 38.3309 8.49853 38.2038 8.53774 38.05C8.55499 37.9673 8.6026 37.8941 8.67121 37.8448C8.73983 37.7954 8.82448 37.7734 8.9085 37.7832C9.1033 37.8156 9.29635 37.8577 9.48692 37.9095C9.51811 37.8606 9.55822 37.7965 9.60456 37.7209C9.53882 37.6762 9.46969 37.6367 9.3978 37.6027C9.13427 37.5057 8.84751 37.4905 8.57518 37.5591C8.45293 37.5836 8.34126 37.6452 8.25543 37.7355C8.1696 37.8257 8.11381 37.9402 8.09569 38.0633C8.0431 38.3558 8.14381 38.5479 8.43258 38.7071C8.52097 38.7528 8.61274 38.7918 8.70708 38.8236C8.80218 38.8553 8.89482 38.8939 8.98426 38.9392C9.09985 38.9965 9.18912 39.0958 9.23381 39.2166C9.24542 39.2726 9.2416 39.3307 9.22277 39.3847C9.20394 39.4387 9.1708 39.4867 9.12686 39.5234C9.06657 39.5753 8.99385 39.6108 8.91577 39.6263C8.83769 39.6419 8.75689 39.6371 8.68123 39.6123C8.5497 39.5694 8.4211 39.518 8.29622 39.4585L8.14827 39.3927L8.00834 39.575Z" fill="#595959"/>
<path d="M2.5399 37.3049C2.7011 37.2586 2.8582 37.1991 3.00959 37.127C3.19017 37.047 3.35105 36.9286 3.48098 36.7801C3.61091 36.6315 3.70675 36.4565 3.76179 36.2671C3.86964 35.9026 3.85092 35.5309 3.85092 35.1601V33.7595C3.85092 33.692 3.87231 33.5817 3.74932 33.603C3.52294 33.6386 3.3037 33.692 3.06306 33.7364C3.11297 34.0396 3.18516 34.3055 3.19407 34.5758C3.21368 35.0827 3.21101 35.5913 3.19407 36.0982C3.18605 36.3543 3.12366 36.6104 2.90531 36.7811C2.72082 36.9216 2.52207 37.0479 2.32422 37.1884C2.37235 37.3386 2.38393 37.352 2.5399 37.3049Z" fill="#595959"/>
<path d="M2.42456 37.3821C2.34167 37.3821 2.31226 37.3279 2.27216 37.2043L2.25879 37.166L2.29266 37.1429L2.4709 37.0166C2.60994 36.9224 2.73828 36.8326 2.86751 36.7365C3.03952 36.6014 3.12508 36.3977 3.13488 36.0954C3.15271 35.5477 3.15271 35.0515 3.13488 34.5766C3.12302 34.3905 3.0965 34.2055 3.05556 34.0235C3.03774 33.9346 3.01991 33.8403 3.00387 33.7443L2.99585 33.6918L3.04754 33.6821L3.2454 33.6412C3.41384 33.6065 3.57248 33.5736 3.73558 33.5522C3.75657 33.5471 3.77845 33.5467 3.79959 33.5512C3.82073 33.5557 3.84059 33.5648 3.85768 33.578C3.87621 33.5994 3.88975 33.6246 3.8973 33.6518C3.90485 33.679 3.90624 33.7076 3.90135 33.7354C3.90091 33.7443 3.90091 33.7532 3.90135 33.7621V35.3067C3.92058 35.6353 3.89054 35.965 3.81223 36.2848C3.75574 36.482 3.65654 36.6644 3.52163 36.8191C3.38672 36.9739 3.21941 37.0971 3.0315 37.1803C2.8776 37.2522 2.71815 37.3117 2.55468 37.3581C2.51272 37.3724 2.46888 37.3805 2.42456 37.3821V37.3821ZM2.38891 37.2096C2.41476 37.2852 2.42723 37.2816 2.52349 37.2523C2.68205 37.2059 2.83647 37.1464 2.98515 37.0744C3.15876 36.9985 3.31356 36.8855 3.4386 36.7434C3.56365 36.6013 3.6559 36.4335 3.70884 36.2519C3.78536 35.9421 3.8154 35.6226 3.79797 35.304C3.79797 35.256 3.79797 35.208 3.79797 35.16V33.7594C3.79797 33.7505 3.79797 33.7399 3.79797 33.7283C3.80073 33.7044 3.79861 33.6802 3.79173 33.6572C3.79173 33.6572 3.7846 33.6527 3.75964 33.6572C3.59833 33.6821 3.44058 33.715 3.27392 33.7461L3.12775 33.7754C3.14112 33.8528 3.15538 33.9266 3.16964 33.9995C3.21158 34.1874 3.23841 34.3783 3.24985 34.5704C3.26857 35.047 3.26857 35.5485 3.24985 36.0963C3.24005 36.4289 3.13845 36.6654 2.94059 36.8201C2.81136 36.9188 2.67322 37.0131 2.53953 37.1047L2.38891 37.2096Z" fill="#595959"/>
<path d="M14.327 38.0259H14.27C14.2531 37.8623 14.2352 37.6978 14.2192 37.5413H13.7646V39.8844H14.2994C14.2994 39.5189 14.2896 39.173 14.3056 38.8306C14.3127 38.6927 14.3466 38.5574 14.4055 38.4323C14.5579 38.1113 14.8555 38.0037 15.1969 37.9583V37.447C14.8074 37.5075 14.5481 37.7369 14.327 38.0259Z" fill="#595959"/>
<path d="M14.3543 39.9369H13.71V37.4862H14.2688L14.2732 37.536C14.2821 37.6249 14.2919 37.7138 14.3017 37.8028L14.3169 37.9477C14.5014 37.7147 14.7625 37.4569 15.1885 37.3928L15.2518 37.3831V38.0055L15.2037 38.0117C14.8008 38.0651 14.5798 38.1976 14.455 38.4563C14.3986 38.5748 14.3662 38.7032 14.3597 38.8343C14.349 39.0806 14.3508 39.3251 14.3525 39.5839C14.3525 39.6826 14.3525 39.7831 14.3525 39.8853L14.3543 39.9369ZM13.8196 39.8266H14.2438C14.2438 39.7439 14.2438 39.6621 14.2438 39.5812C14.2438 39.3207 14.2394 39.0752 14.2518 38.8254C14.2586 38.6803 14.294 38.5379 14.3561 38.4065C14.5237 38.0509 14.857 37.9513 15.1422 37.9086V37.5111C14.8516 37.5716 14.6074 37.7423 14.3713 38.0562L14.3543 38.0784H14.2215L14.193 37.8117C14.1859 37.737 14.1779 37.664 14.1707 37.5911H13.8205L13.8196 39.8266Z" fill="#595959"/>
<path d="M16.9645 15.7296V30.4133C16.9645 31.0588 16.5902 31.3914 16.0367 31.475C15.6873 31.5274 15.4075 31.33 15.166 31.0837C14.5849 30.4909 14.0011 29.9017 13.4147 29.316C11.8639 27.7622 10.3128 26.2093 8.76148 24.6573C8.67629 24.5716 8.60932 24.4696 8.56461 24.3575C8.51989 24.2453 8.49833 24.1253 8.50124 24.0047V7.44029C8.50124 7.06148 8.72315 6.80627 8.97003 6.56174L10.732 4.80464L12.8469 2.69541L14.8754 0.676887C15.0385 0.510603 15.2105 0.352322 15.3897 0.202934C15.9609 -0.256792 16.7871 0.125572 16.9235 0.740911C16.9475 0.840598 16.961 0.94253 16.9636 1.04502C16.9666 5.94047 16.9669 10.8353 16.9645 15.7296Z" fill="#662577"/>
<path d="M17.928 23.6962V9.04811C17.928 8.48257 18.1731 8.12421 18.6918 7.98105C19.0643 7.87879 19.387 7.99616 19.6517 8.25848C20.4039 9.00365 21.1463 9.75771 21.8958 10.5055C22.8239 11.4321 23.7535 12.3578 24.6845 13.2826C25.1676 13.7645 25.6542 14.2447 26.1337 14.7302C26.2152 14.8121 26.2796 14.9092 26.3232 15.0161C26.3668 15.1229 26.3887 15.2373 26.3877 15.3527V31.9179C26.3915 32.0581 26.3661 32.1975 26.313 32.3273C26.2599 32.4572 26.1803 32.5745 26.0793 32.672C24.9201 33.8286 23.7615 34.9875 22.6035 36.1488C21.6171 37.1329 20.6326 38.1211 19.6499 39.1135C19.4735 39.304 19.2285 39.4168 18.9688 39.4271C18.7091 39.4375 18.4559 39.3445 18.2649 39.1686C18.1735 39.0852 18.0991 38.9849 18.0456 38.8734C17.9638 38.6907 17.9242 38.4919 17.9298 38.2919C17.9238 33.5529 17.9223 28.8143 17.9253 24.0759L17.928 23.6962Z" fill="#CB2E79"/>
</svg>
